<?xml version="1.0" encoding="UTF-8"?>
<!-- Created with Inkscape (http://www.inkscape.org/) -->
<svg width="17" height="16.495" version="1.1" viewBox="0 0 4.4979 4.3642" xmlns="http://www.w3.org/2000/svg">
 <g transform="translate(3.0357 231.09)">
  <path d="m-0.72319-231.09c-0.58505 0-1.1349 0.22776-1.5485 0.64138-0.048669 0.0482-0.094552 0.0991-0.138 0.1515l-0.39957-0.39949-0.22646 1.5322 1.5282-0.23042-0.51448-0.51459c0.04197-0.0545 0.086248-0.10591 0.13494-0.1547 0.31044-0.31024 0.72338-0.48123 1.1628-0.48128 0.4408 5e-5 0.85452 0.17104 1.165 0.48128 0.2998 0.30001 0.46934 0.69651 0.48016 1.1203 0.18013-0.0288 0.36073-0.0584 0.5413-0.0878-0.031702-0.53585-0.25624-1.0366-0.63692-1.4174-0.41361-0.41368-0.96345-0.64144-1.5483-0.64144h-2.2139e-4zm-1.6208 2.3357-0.39343 0.0429-0.00533 4.9e-4 -0.00536 2.4e-4c-0.030732 8.3e-4 -0.07113 3e-3 -0.11106 9e-3 -0.00859 8.8e-4 -0.017097 3e-3 -0.025636 4e-3 0.050185 0.50229 0.27212 0.97214 0.62987 1.3299 0.41361 0.41366 0.96356 0.64142 1.5485 0.64142 0.55154 0 1.0719-0.20269 1.4762-0.57267l0.39443 0.39443 0.23049-1.5282-1.5322 0.2265 0.52212 0.52209c-0.30076 0.26695-0.684 0.41319-1.09 0.41319-0.44077 0-0.85449-0.171-1.165-0.48139-0.28262-0.28303-0.44183-0.61961-0.47372-1.0011z" fill="#616e7d"/>
 </g>
</svg>
